<svg width="26" height="26" viewBox="0 0 26 26" fill="none" xmlns="http://www.w3.org/2000/svg">
<path d="M20.25 22.6801H17.01C16.3655 22.6801 15.7474 22.424 15.2917 21.9683C14.836 21.5126 14.58 20.8945 14.58 20.2501V16.2001C14.58 15.9852 14.4947 15.7792 14.3428 15.6273C14.1908 15.4754 13.9848 15.3901 13.77 15.3901H12.15C11.9352 15.3901 11.7291 15.4754 11.5772 15.6273C11.4253 15.7792 11.34 15.9852 11.34 16.2001V20.2501C11.34 20.8945 11.084 21.5126 10.6283 21.9683C10.1726 22.424 9.55447 22.6801 8.91 22.6801H5.67C5.02552 22.6801 4.40744 22.424 3.95173 21.9683C3.49601 21.5126 3.24 20.8945 3.24 20.2501V13.4947C3.23905 12.9624 3.343 12.4353 3.54592 11.9433C3.74884 11.4512 4.04674 11.0041 4.4226 10.6273L11.2347 3.81515C11.6903 3.36009 12.3079 3.10449 12.9519 3.10449C13.5958 3.10449 14.2135 3.36009 14.6691 3.81515L21.4812 10.6273C21.86 11.0027 22.1609 11.4493 22.3666 11.9414C22.5723 12.4335 22.6788 12.9613 22.68 13.4947V20.2501C22.68 20.8945 22.424 21.5126 21.9683 21.9683C21.5126 22.424 20.8945 22.6801 20.25 22.6801Z" fill="#E64A19"/>
</svg>
