<svg width="42" height="25" viewBox="0 0 42 25" fill="none" xmlns="http://www.w3.org/2000/svg">
<path d="M15 5.625C15 2.4375 17.4375 0 20.625 0C23.8125 0 26.25 2.4375 26.25 5.625C26.25 8.8125 23.8125 11.25 20.625 11.25C17.4375 11.25 15 8.8125 15 5.625ZM20.625 15C12 15 9.375 21.1875 9.375 21.1875V24.375H31.875V21.1875C31.875 21.1875 29.25 15 20.625 15Z" fill="white"/>
<path d="M32.8125 9.375C35.4013 9.375 37.5 7.27633 37.5 4.6875C37.5 2.09867 35.4013 0 32.8125 0C30.2237 0 28.125 2.09867 28.125 4.6875C28.125 7.27633 30.2237 9.375 32.8125 9.375Z" fill="white"/>
<path d="M32.8125 13.125C30.5625 13.125 28.875 13.6875 27.5625 14.625C31.875 16.6875 33.5625 20.25 33.5625 20.625V20.8125H41.25V18.375C41.25 18.1875 39.1875 13.125 32.8125 13.125Z" fill="white"/>
<path d="M32.8125 9.375C35.4013 9.375 37.5 7.27633 37.5 4.6875C37.5 2.09867 35.4013 0 32.8125 0C30.2237 0 28.125 2.09867 28.125 4.6875C28.125 7.27633 30.2237 9.375 32.8125 9.375Z" fill="white"/>
<path d="M32.8125 13.125C30.5625 13.125 28.875 13.6875 27.5625 14.625C31.875 16.6875 33.5625 20.25 33.5625 20.625V20.8125H41.25V18.375C41.25 18.1875 39.1875 13.125 32.8125 13.125Z" fill="white"/>
<path d="M8.4375 9.375C11.0263 9.375 13.125 7.27633 13.125 4.6875C13.125 2.09867 11.0263 0 8.4375 0C5.84867 0 3.75 2.09867 3.75 4.6875C3.75 7.27633 5.84867 9.375 8.4375 9.375Z" fill="white"/>
<path d="M8.4375 13.125C10.6875 13.125 12.375 13.6875 13.6875 14.625C9.375 16.6875 7.6875 20.25 7.6875 20.625V20.8125H0V18.375C0 18.1875 2.0625 13.125 8.4375 13.125Z" fill="white"/>
</svg>
