<svg width="37" height="37" viewBox="0 0 37 37" fill="none" xmlns="http://www.w3.org/2000/svg">
<g clip-path="url(#clip0_48_1785)">
<path fill-rule="evenodd" clip-rule="evenodd" d="M4.82662 11.894C5.18238 19.2747 15.2764 28.6625 22.1102 30.8501C26.6926 32.3103 33.5157 29.4218 30.8183 26.7244L26.5492 22.4606C25.9014 21.8075 24.85 21.8871 24.2182 22.5137L21.7756 24.9668C16.5083 22.0995 14.2994 19.8375 11.4055 14.6073L13.8587 12.1542C14.4905 11.5223 14.5596 10.4709 13.9118 9.82313L9.64796 5.55933C7.27446 3.17521 4.69387 9.1063 4.82662 11.894Z" fill="#FF6E40"/>
<path fill-rule="evenodd" clip-rule="evenodd" d="M4.82662 11.894L11.4108 14.602L13.864 12.1595C14.4959 11.5223 14.5649 10.4709 13.9171 9.82313L9.65327 5.55933C7.27446 3.17521 4.69387 9.1063 4.82662 11.894Z" fill="#E64A19"/>
<path fill-rule="evenodd" clip-rule="evenodd" d="M22.1104 30.8502C26.6928 32.3104 33.5159 29.4218 30.8185 26.7244L26.5494 22.4606C25.9016 21.8075 24.8503 21.8871 24.2184 22.5137L21.7759 24.9668L22.1051 30.8448L22.1104 30.8502Z" fill="#E64A19"/>
</g>
<defs>
<clipPath id="clip0_48_1785">
<rect width="36.2503" height="36.2503" fill="white"/>
</clipPath>
</defs>
</svg>
