<svg width="22" height="22" viewBox="0 0 22 22" fill="none" xmlns="http://www.w3.org/2000/svg">
<path d="M19.2459 15.9768C19.4561 16.1878 19.6138 16.4454 19.706 16.7287C19.7983 17.012 19.8225 17.313 19.7767 17.6074C19.731 17.9017 19.6165 18.1812 19.4427 18.4231C19.2688 18.6651 19.0405 18.8627 18.776 18.9999C17.265 19.8075 15.5045 20.0139 13.8477 19.5777C9.45025 18.4707 3.12955 12.15 2.02255 7.7526C1.58634 6.09575 1.79274 4.33523 2.60035 2.8242C2.7376 2.55979 2.93519 2.33141 3.17711 2.15756C3.41904 1.98371 3.69851 1.86928 3.9929 1.82353C4.28728 1.77778 4.5883 1.802 4.87158 1.89423C5.15485 1.98646 5.41243 2.14411 5.62345 2.3544L7.49995 4.23C7.77056 4.49789 7.95367 4.84148 8.02516 5.21549C8.09666 5.5895 8.05318 5.97639 7.90045 6.3252C7.73332 6.71656 7.49602 7.07404 7.20025 7.38C5.05465 9.5256 12.0756 16.5465 14.2203 14.4C14.5263 14.1032 14.8841 13.8649 15.276 13.6971C15.6247 13.5441 16.0117 13.5005 16.3857 13.572C16.7598 13.6435 17.1034 13.8268 17.3712 14.0976L19.2459 15.9768Z" fill="#E64A19"/>
</svg>
